<svg width="25" height="24" viewBox="0 0 25 24" fill="none" xmlns="http://www.w3.org/2000/svg">
<path fill-rule="evenodd" clip-rule="evenodd" d="M12.9114 2.16663C7.37709 2.16663 2.90314 6.67357 2.90314 12.2493C2.90314 16.7062 5.76976 20.4789 9.74652 21.8142C10.2437 21.9146 10.4258 21.5973 10.4258 21.3303C10.4258 21.0966 10.4094 20.2954 10.4094 19.4606C7.62539 20.0616 7.04563 18.2587 7.04563 18.2587C6.59821 17.0901 5.93528 16.7898 5.93528 16.7898C5.02406 16.1721 6.00166 16.1721 6.00166 16.1721C7.01244 16.2389 7.54283 17.2071 7.54283 17.2071C8.43745 18.7427 9.87906 18.3088 10.459 18.0417C10.5418 17.3907 10.8071 16.94 11.0888 16.6896C8.86828 16.4559 6.53204 15.5879 6.53204 11.715C6.53204 10.6132 6.92947 9.71186 7.55922 9.01082C7.45986 8.76048 7.1118 7.72532 7.65878 6.33985C7.65878 6.33985 8.50383 6.07271 10.4092 7.3748C11.225 7.1541 12.0663 7.04183 12.9114 7.04088C13.7565 7.04088 14.6179 7.15786 15.4134 7.3748C17.319 6.07271 18.164 6.33985 18.164 6.33985C18.711 7.72532 18.3628 8.76048 18.2634 9.01082C18.9097 9.71186 19.2908 10.6132 19.2908 11.715C19.2908 15.5879 16.9545 16.4391 14.7175 16.6896C15.0821 17.0067 15.3968 17.6076 15.3968 18.5592C15.3968 19.9113 15.3804 20.9964 15.3804 21.3301C15.3804 21.5973 15.5627 21.9146 16.0597 21.8144C20.0365 20.4787 22.9031 16.7062 22.9031 12.2493C22.9195 6.67357 18.4291 2.16663 12.9114 2.16663Z" fill="#CCCCCC"/>
</svg>
