<svg width="25" height="24" viewBox="0 0 25 24" fill="none" xmlns="http://www.w3.org/2000/svg">
<path d="M21.9031 4.32353V19.6765C21.9031 20.0275 21.7637 20.3641 21.5155 20.6123C21.2673 20.8606 20.9306 21 20.5796 21H5.22667C4.87564 21 4.539 20.8606 4.29079 20.6123C4.04258 20.3641 3.90314 20.0275 3.90314 19.6765V4.32353C3.90314 3.97251 4.04258 3.63586 4.29079 3.38765C4.539 3.13944 4.87564 3 5.22667 3H20.5796C20.9306 3 21.2673 3.13944 21.5155 3.38765C21.7637 3.63586 21.9031 3.97251 21.9031 4.32353ZM9.19726 9.88235H6.5502V18.3529H9.19726V9.88235ZM9.43549 6.97059C9.43689 6.77036 9.39883 6.57182 9.32349 6.3863C9.24815 6.20078 9.13701 6.03191 8.99641 5.88935C8.85581 5.74678 8.68851 5.6333 8.50405 5.5554C8.3196 5.47749 8.1216 5.43668 7.92137 5.43529H7.87373C7.46654 5.43529 7.07603 5.59705 6.78811 5.88497C6.50019 6.17289 6.33843 6.5634 6.33843 6.97059C6.33843 7.37777 6.50019 7.76828 6.78811 8.05621C7.07603 8.34413 7.46654 8.50588 7.87373 8.50588C8.07397 8.51081 8.27322 8.47623 8.46009 8.40413C8.64697 8.33202 8.8178 8.2238 8.96284 8.08565C9.10787 7.94749 9.22427 7.78212 9.30537 7.59897C9.38647 7.41582 9.43068 7.21848 9.43549 7.01824V6.97059ZM19.2561 13.2071C19.2561 10.6606 17.6361 9.67059 16.0267 9.67059C15.4997 9.6442 14.975 9.75644 14.505 9.9961C14.035 10.2358 13.636 10.5945 13.3478 11.0365H13.2737V9.88235H10.7855V18.3529H13.4325V13.8476C13.3943 13.3862 13.5396 12.9283 13.837 12.5735C14.1344 12.2186 14.5598 11.9954 15.0208 11.9524H15.1214C15.9631 11.9524 16.5878 12.4818 16.5878 13.8159V18.3529H19.2349L19.2561 13.2071Z" fill="#CCCCCC"/>
</svg>
