<svg width="16" height="16" viewBox="0 0 16 16" fill="none" xmlns="http://www.w3.org/2000/svg">
<path d="M15.9881 1.15034C16.0475 0.77214 15.8818 0.390818 15.5661 0.175152C15.2504 -0.0405131 14.8379 -0.0592666 14.5034 0.131394L0.500788 8.1329C0.169476 8.32043 -0.0243109 8.67987 0.000693826 9.0612C0.0256985 9.44252 0.263243 9.77696 0.613309 9.92386L4.99851 11.7492V14.656C4.99851 15.3999 5.60175 16 6.34251 16C6.75196 16 7.13641 15.8156 7.39271 15.4968L9.04302 13.4339H9.04614L12.6156 14.9217C12.9 15.0404 13.2219 15.0217 13.4907 14.8717C13.7595 14.7216 13.9439 14.456 13.9908 14.1528L15.9912 1.15034H15.9881ZM8.08034 13.0338L6.61131 14.8717C6.54567 14.9529 6.44565 14.9998 6.34251 14.9998C6.15185 14.9998 5.9987 14.8467 5.9987 14.656V12.1649L8.08034 13.0338ZM9.42746 12.5118L6.40815 11.2522L14.816 2.20053L13 13.9996L9.43059 12.5118H9.42746ZM14.0783 1.52228L5.42359 10.8428L0.997756 8.99868L14.0783 1.52228Z" fill="#0E441D"/>
</svg>
