<svg xmlns="http://www.w3.org/2000/svg" width="25" height="24" viewBox="0 0 25 24" fill="none">
  <path d="M20.8555 7.92007C20.8677 8.09639 20.8677 8.2727 20.8677 8.45064C20.8677 13.8725 16.7402 20.1256 9.19274 20.1256V20.1224C6.9632 20.1256 4.77998 19.487 2.90308 18.2829C3.22727 18.3219 3.55309 18.3414 3.87972 18.3422C5.72737 18.3438 7.52221 17.7239 8.9758 16.5823C7.21996 16.549 5.68024 15.4041 5.14236 13.7328C5.75743 13.8514 6.39119 13.827 6.99489 13.6621C5.08061 13.2753 3.7034 11.5934 3.7034 9.64016C3.7034 9.62229 3.7034 9.60522 3.7034 9.58816C4.27379 9.90585 4.91242 10.0822 5.56568 10.1017C3.76271 8.89671 3.20696 6.49818 4.29572 4.6229C6.37901 7.18637 9.45274 8.74477 12.7524 8.90971C12.4217 7.48457 12.8734 5.99117 13.9394 4.98934C15.5921 3.43582 18.1913 3.51544 19.7448 5.16728C20.6638 4.98609 21.5446 4.6489 22.3506 4.17114C22.0443 5.12097 21.4032 5.92779 20.5468 6.44049C21.3601 6.34461 22.1548 6.12686 22.9031 5.79454C22.3522 6.62005 21.6583 7.33913 20.8555 7.92007Z" fill="#CCCCCC"/>
</svg>